{
  "asset": {
    "version": "2.0",
    "generator": "IWSDK starter static banner"
  },
  "extensionsUsed": ["KHR_materials_unlit"],
  "scene": 0,
  "scenes": [{ "nodes": [0] }],
  "nodes": [{ "mesh": 0 }],
  "meshes": [
    {
      "primitives": [
        {
          "attributes": { "POSITION": 0, "TEXCOORD_0": 1 },
          "indices": 2,
          "material": 0
        }
      ]
    }
  ],
  "materials": [
    {
      "name": "Unlit WebXR banner",
      "extensions": { "KHR_materials_unlit": {} },
      "pbrMetallicRoughness": {
        "baseColorTexture": { "index": 0 },
        "metallicFactor": 0,
        "roughnessFactor": 1
      },
      "alphaMode": "BLEND"
    }
  ],
  "textures": [{ "source": 0 }],
  "images": [{ "uri": "../../textures/webxr.png" }],
  "accessors": [
    {
      "bufferView": 0,
      "componentType": 5126,
      "count": 4,
      "type": "VEC3",
      "min": [-1.695, -0.48, 0],
      "max": [1.695, 0.48, 0]
    },
    {
      "bufferView": 1,
      "componentType": 5126,
      "count": 4,
      "type": "VEC2"
    },
    {
      "bufferView": 2,
      "componentType": 5123,
      "count": 6,
      "type": "SCALAR"
    }
  ],
  "bufferViews": [
    { "buffer": 0, "byteOffset": 0, "byteLength": 48, "target": 34962 },
    { "buffer": 0, "byteOffset": 48, "byteLength": 32, "target": 34962 },
    { "buffer": 0, "byteOffset": 80, "byteLength": 12, "target": 34963 }
  ],
  "buffers": [
    {
      "byteLength": 92,
      "uri": "data:application/octet-stream;base64,"
    }
  ]
}
